<svg id="Layer_1" data-name="Layer 1" xmlns="http://www.w3.org/2000/svg" width="500" height="500" viewBox="0 0 500 500">
  <defs>
    <style>
      .cls-1 {
        fill: #fff;
      }

      .cls-2 {
        fill: #048cff;
      }

      .cls-3 {
        fill: #00e80d;
      }
    </style>
  </defs>
  <g>
    <circle class="cls-1" cx="249.65" cy="249.84" r="250"/>
    <g>
      <g>
        <g>
          <path class="cls-2" d="M349.12,354.53c14.47-5,30.1-7.06,43.88-13.68a168.54,168.54,0,0,0,26.71-91.27c0-91.66-80.1-169.26-169.26-169.26-88.73,0-134.7,43.91-141.86,130.79,6.42-2.16,3.89,4.7,3.1,10.87a7,7,0,0,1,.88,1.38c.14.3.29.59.44.89.68.37,1.35.76,2,1.19a7.92,7.92,0,0,1,4,2.08,8.33,8.33,0,0,1,3.67,1.36,8.65,8.65,0,0,1,1.69-.17,100.57,100.57,0,0,1,17,1.75,7,7,0,0,1,3.33,1.59,16,16,0,0,1,2.32.86c-2.31-1,.49,0,1,.21l.83.32a11.39,11.39,0,0,1,1.94.26c12.11,2.84,23.2,8.18,34,14.27,10,5.69,21,12.17,27.34,22.15a8.31,8.31,0,0,1,1.3,6.08c14.71,18.75,45.62,62,80.37,71.32,18,4.81,29.26,3.11,47.54,6.65C343.81,354.33,346.47,354.45,349.12,354.53Z"/>
          <path class="cls-3" d="M221.84,124.1c-4.57,0-8.5-5.67-9-6.36a12.42,12.42,0,0,1-1.06-12.48,18.46,18.46,0,0,1,2.11-3,15.2,15.2,0,0,0,1.38-1.84c.59-1,.68-2,.38-2.34a5.09,5.09,0,0,0-.6-.43,10,10,0,0,1-1.18-.87,4.22,4.22,0,0,1-1-5.34,4.56,4.56,0,0,1,2.33-1.76,79,79,0,0,1,28.89-5.57h.1c5.73,0,7.48,2.68,8,4.28.87,2.59-.21,5.27-3.2,8-1.78,1.6-3.64,3.16-5.44,4.66-5.14,4.3-10,8.35-13.25,13.69-.28.47-.62,1.22-1,2s-.78,1.71-1.25,2.58c-1,1.77-2.55,4.19-5.27,4.68A5.2,5.2,0,0,1,221.84,124.1Zm-5-29.59Z"/>
          <path class="cls-3" d="M321.84,355h-.52c-2.68-.14-6.44-1.41-9.2-6.75a63.51,63.51,0,0,1-4-10.84c-.48-1.61-.94-3.14-1.44-4.63-.16-.47-.33-1-.5-1.43-1.53-4.46-3.27-9.51-3.27-14.6a19,19,0,0,1,.95-6.11,32.62,32.62,0,0,1,3.1-6.23c1.65-2.78,3.2-5.4,3-8.07-.2-2.86-2.24-5.22-4.6-8a29.22,29.22,0,0,1-4.9-6.95c-2.17-4.79-1.61-9.88-1.08-14.79.14-1.28.27-2.48.35-3.68.33-4.7-.76-10.77-4.92-12.42-1.91-.76-4.24-.51-6.71-.24l-1.48.15A45.93,45.93,0,0,1,252.22,239a15.36,15.36,0,0,1-4.52-6.15c-1-3-.53-6,0-8.79,1-4.88,2.23-9.77,3.67-14.53,1.6-5.28,3.57-10.83,7.12-15.62,4.15-5.62,10.09-9.59,15.33-13.09,4.25-2.84,9.06-6.06,14.5-7.68,6.41-1.91,12.71-1.18,17.28,2,.74.52,1.44,1.09,2.12,1.65,1.65,1.36,3.22,2.65,4.6,2.45a6.6,6.6,0,0,0,1.93-.78l1-.47a20.52,20.52,0,0,1,11.54-1.43c2.53-.1,8-.76,9.1-1.27a2.64,2.64,0,0,0,1.73-2.14c-.08-1.42-2.63-2.46-5-3s-8.41-1.81-9.36-6.94c-.91-4.94,3.72-8.06,6.78-10.13l.46-.31a23.26,23.26,0,0,0,5.79-5.62,1.15,1.15,0,0,0,.14-.23,4.58,4.58,0,0,0-1.41-.76c-8.62-3.47-15.08-3.88-19.74-1.25a27,27,0,0,0-4.43,3.45,32.45,32.45,0,0,1-5.07,3.94c-3.83,2.26-8.11,2.85-12.24,3.42-3.52.49-6.85.95-9.7,2.38-.76.38-1.53.85-2.35,1.35-2.41,1.46-5.13,3.12-8.47,2.91a9,9,0,0,1-6.36-3.39,11.88,11.88,0,0,1-2.61-8.86c.54-4.24,3-8.24,7.58-12.25,1-.88,2-1.72,3-2.54a37.76,37.76,0,0,0,6.18-5.8,38.41,38.41,0,0,0,4.22-7.56c.62-1.34,1.26-2.72,2-4.07,6.64-12.57,22.29-24.45,36.09-26.73l.79-.13.72.35a176.38,176.38,0,0,1,77.18,72.29,174.57,174.57,0,0,1,20.3,57.51l0,.22c.77,4.69,1.36,9.51,1.76,14.33l.19,2.32-2.3.38c-7,1.16-8.84-3.19-12.83-7.43-.52-.56-1.07-1.14-1.64-1.73A77.26,77.26,0,0,1,399,218.44c-1.42-2.09-2.89-4.26-4.43-6.27a9.17,9.17,0,0,0-2.91-2.79,10.26,10.26,0,0,0-2.88-.67c-.42-.06-.84-.12-1.25-.2a22.1,22.1,0,0,1-13.21-7.72,40.27,40.27,0,0,1-3.71-5.74,29.36,29.36,0,0,0-4.06-6,13.17,13.17,0,0,0-20.31,1.65,1.83,1.83,0,0,0-.32,1.22v0c1,13,8.06,24.94,14.31,35.52,1.09,1.85,2.39,3.83,3.95,4.12a11.29,11.29,0,0,0,2.65,0c2.32-.2,5.83-.5,7.49,2.72a6.89,6.89,0,0,1,.6,3.63c-.49,8.64-4.25,17.34-11.83,27.39l-.32.42c-1.49,2-2.89,3.82-3.38,5.86-.56,2.31.07,4.89.73,7.63.3,1.24.61,2.53.83,3.85a26,26,0,0,1-11.34,25.4l-1.28.8c-1.72,1-3.34,2-3.88,3.36s0,3.13.5,5c.21.77.43,1.56.6,2.37,1.71,8.23-2.44,16.13-7.18,23.44C335.58,347.86,329,355,321.84,355Zm14.63-208.15Z"/>
          <path class="cls-3" d="M192.91,254.42C202,259.93,209,270.28,215,279c2.84,4.17,11.81,14.57,11.82,14.52,1.3-9.1.92-18.42-4.24-25.66-3.67-5.14-9.27-7.88-14.69-10.53-5.06-2.47-9.83-4.8-12.77-8.87a31.84,31.84,0,0,1-2.33-4,23.61,23.61,0,0,0-4.85-7A22.82,22.82,0,0,0,184.4,235a15.52,15.52,0,0,1-5.41-5,26.7,26.7,0,0,0-3.4-3.81c-7.21-6.32-17.52-3.76-21.61-2.37-.68.23-1.36.48-2,.76a6.77,6.77,0,0,1-6.3-.61c-4-2.66-6.59-5.11-7.68-7.29a4.71,4.71,0,0,1-.67-2.22,5.94,5.94,0,0,1,.41-1.31,9.44,9.44,0,0,0,.75-2.71c.41-4.53-4.07-7.76-8.65-8.26h-.13c-.86-.1-2.87-.31-3.3-.74a3.14,3.14,0,0,1,.93-1.32c2.53-2.51,5.89-4.08,9.45-5.74a42.09,42.09,0,0,0,9.63-5.58c3.81-3.18,6.28-7.37,8.67-11.42a48.93,48.93,0,0,1,5.82-8.48c2.7-2.91,6.09-5.09,9.69-7.39,1.36-.87,2.76-1.77,4.12-2.71,6.74-4.65,10.61-9.56,11.84-15,.19-.86.31-1.71.43-2.54a10.76,10.76,0,0,1,1.1-4.11c1-1.6,3.29-2.55,5.3-3.4,3.35-1.4,6.58-2.88,9.18-5.43,3.27-3.21,4.65-7.55,3.59-11.33-1.18-4.24-4.82-6.55-8-8.58-2.55-1.62-4.95-3.15-5.87-5.34a13.68,13.68,0,0,1-.51-5.41,4.38,4.38,0,0,0-4.38-5.21c-2-.16-4.55-.55-7.05-.93-1.9-.3-1.81.09-3.55-.11l-.73-.09-.66.33a176.67,176.67,0,0,0-87,93.39c-.61,1.54-1.1,2.81-1.54,4l-.7,1.88L87.76,192c4.42,2.9,5.18,3.51,6.37,9.11a18.08,18.08,0,0,0,1,12.57c3.16,6.42,12.11,11.86,20.45,13.42l1.2.21a19.93,19.93,0,0,1,2.84.61c1.31.42,28.49,3.48,38.12,6.59a100.27,100.27,0,0,1,33.31,19A10.6,10.6,0,0,1,192.91,254.42Z"/>
          <g>
            <g>
              <path class="cls-1" d="M304,186.45c-3.21-2.56-6.92-4.75-11.18-4.15s-8.06,3.27-11.85,5.34A43.49,43.49,0,0,0,270.5,195a36.18,36.18,0,0,0-6.58,9.34,47.71,47.71,0,0,0-4.07,12.56c-.15.79,1.07,1.13,1.21.33,1.35-7.27,4.16-14.42,9.1-20a35.72,35.72,0,0,1,9.28-7.29c1.9-1.09,3.82-2.14,5.72-3.24a27.52,27.52,0,0,1,5.49-2.59,10.69,10.69,0,0,1,6.57-.18,18.41,18.41,0,0,1,5.86,3.43c.63.5,1.53-.39.9-.9Z"/>
              <path class="cls-1" d="M260.53,218.13a1.18,1.18,0,0,1-.75-.28,1.07,1.07,0,0,1-.36-1,48.62,48.62,0,0,1,4.11-12.68,36.32,36.32,0,0,1,6.67-9.45,43.85,43.85,0,0,1,10.54-7.44c.8-.43,1.59-.89,2.39-1.36,3-1.73,6.06-3.52,9.61-4,4.66-.66,8.6,1.92,11.5,4.24a1,1,0,0,1,.16,1.38,1.13,1.13,0,0,1-1.59.19,18.52,18.52,0,0,0-5.72-3.35,10.3,10.3,0,0,0-6.31.18,27.23,27.23,0,0,0-5.4,2.56c-1.07.62-2.15,1.22-3.23,1.83-.84.46-1.67.93-2.5,1.4a35.39,35.39,0,0,0-9.16,7.21c-4.48,5.07-7.51,11.74-9,19.81a.94.94,0,0,1-.62.75A1,1,0,0,1,260.53,218.13Zm33.69-35.49a10.47,10.47,0,0,0-1.36.09c-3.38.48-6.39,2.23-9.3,3.92-.8.47-1.6.93-2.41,1.37a43.56,43.56,0,0,0-10.34,7.29,35.88,35.88,0,0,0-6.5,9.23,47.66,47.66,0,0,0-4,12.44.21.21,0,0,0,.07.21.27.27,0,0,0,.24.07s0,0,.06-.1c1.52-8.23,4.61-15,9.2-20.22a36.13,36.13,0,0,1,9.38-7.39l2.5-1.41c1.08-.6,2.16-1.2,3.22-1.82a28.23,28.23,0,0,1,5.58-2.64,11.13,11.13,0,0,1,6.83-.18,19.11,19.11,0,0,1,6,3.51.26.26,0,0,0,.37-.07c.07-.08,0-.11,0-.15h0C301.23,184.81,298,182.64,294.22,182.64Z"/>
            </g>
            <g>
              <path class="cls-1" d="M275.59,147c4.32-6,12.25-8.1,16.2-14.45a43.65,43.65,0,0,0,2.57-5.39c.78-1.76,1.59-3.5,2.49-5.21a37.75,37.75,0,0,1,6.67-9.33,68.59,68.59,0,0,1,10.3-8c.67-.46,0-1.55-.64-1.09a82,82,0,0,0-9.35,7,37.16,37.16,0,0,0-7.13,9c-1,1.69-1.85,3.44-2.67,5.22s-1.57,3.67-2.44,5.46a16.34,16.34,0,0,1-3.34,4.61,33.77,33.77,0,0,1-4.29,3.43c-3.4,2.38-7,4.61-9.46,8-.48.66.62,1.29,1.09.64Z"/>
              <path class="cls-1" d="M275.06,147.72h-.12a1.12,1.12,0,0,1-.91-.63.93.93,0,0,1,.12-1c2.2-3.05,5.29-5.18,8.27-7.24l1.29-.9a34.18,34.18,0,0,0,4.24-3.39,15.73,15.73,0,0,0,3.25-4.48c.5-1,1-2.09,1.41-3.12.34-.78.67-1.56,1-2.33.95-2,1.8-3.72,2.68-5.26a37.54,37.54,0,0,1,7.22-9.14,81.07,81.07,0,0,1,9.4-7.05,1,1,0,0,1,1.4.27,1.1,1.1,0,0,1-.28,1.54,69.56,69.56,0,0,0-10.24,7.92,37.36,37.36,0,0,0-6.59,9.23c-.78,1.48-1.57,3.13-2.48,5.18-.18.42-.37.84-.55,1.27a30.9,30.9,0,0,1-2,4.17c-2.12,3.4-5.37,5.63-8.51,7.78-2.8,1.92-5.69,3.9-7.71,6.69h0A1.06,1.06,0,0,1,275.06,147.72Zm38.45-43.83-.09,0a82.36,82.36,0,0,0-9.29,7,36.46,36.46,0,0,0-7.06,8.92c-.87,1.52-1.71,3.17-2.64,5.19-.36.76-.69,1.54-1,2.31-.45,1-.91,2.12-1.42,3.16a16.75,16.75,0,0,1-3.43,4.73,34.67,34.67,0,0,1-4.34,3.47l-1.3.9c-2.92,2-5.94,4.1-8.06,7-.05.07,0,.09,0,.1a.25.25,0,0,0,.21.13.24.24,0,0,0,.21-.1c2.1-2.91,5.06-4.93,7.92-6.89,3.07-2.11,6.24-4.28,8.26-7.52a29.29,29.29,0,0,0,2-4.06c.19-.43.37-.86.56-1.28.92-2.07,1.71-3.74,2.51-5.24a38.35,38.35,0,0,1,6.74-9.44,70.85,70.85,0,0,1,10.37-8c.17-.12.05-.31,0-.33S313.54,103.89,313.51,103.89Z"/>
            </g>
            <g>
              <path class="cls-1" d="M309.22,262.54a35,35,0,0,0-1.14,8.63,15.53,15.53,0,0,0,1.8,6.64c1.92,3.67,4.9,6.63,7.21,10a17,17,0,0,1,2.52,5.16,11.48,11.48,0,0,1-.33,6.54c-1.57,4.76-4.92,8.74-5.77,13.76a19.62,19.62,0,0,0,.72,9.22c.9,2.85,2.17,5.72,1.85,8.78-.08.81,1.18.8,1.26,0,.28-2.72-.63-5.33-1.48-7.87a21,21,0,0,1-1.33-8,19.75,19.75,0,0,1,2.19-7.54c1.08-2.2,2.32-4.31,3.26-6.58a14,14,0,0,0,1.18-6.72,14.32,14.32,0,0,0-1.89-5.6c-2-3.53-4.91-6.42-7.12-9.79a15.79,15.79,0,0,1-2.69-6.62c-.43-3.24.29-6.51,1-9.67.17-.79-1.05-1.13-1.22-.33Z"/>
              <path class="cls-1" d="M316.65,332.34a1.07,1.07,0,0,1-.63-.2,1,1,0,0,1-.37-.89c.25-2.41-.55-4.76-1.31-7-.18-.53-.36-1.05-.52-1.57a20,20,0,0,1-.74-9.42A28.22,28.22,0,0,1,316.3,305a37.55,37.55,0,0,0,2.56-5.63,11,11,0,0,0,.33-6.3,16.27,16.27,0,0,0-2.46-5c-.88-1.3-1.88-2.55-2.84-3.77A40.11,40.11,0,0,1,309.5,278a15.93,15.93,0,0,1-1.85-6.82,35.4,35.4,0,0,1,1.14-8.75h0a1,1,0,0,1,1.22-.76,1.06,1.06,0,0,1,.85,1.28c-.69,3.16-1.39,6.37-1,9.53a15.39,15.39,0,0,0,2.62,6.43c.94,1.44,2,2.82,3.1,4.15a44.34,44.34,0,0,1,4,5.67,14.9,14.9,0,0,1,1.94,5.76,14.29,14.29,0,0,1-1.21,6.93c-.62,1.5-1.38,2.95-2.11,4.36-.4.75-.79,1.5-1.16,2.25a19,19,0,0,0-2.15,7.37,20.61,20.61,0,0,0,1.31,7.88l.08.25c.84,2.5,1.71,5.08,1.42,7.8a1.06,1.06,0,0,1-.64.89A1.16,1.16,0,0,1,316.65,332.34Zm-7-69.71h0a34.42,34.42,0,0,0-1.12,8.53,15,15,0,0,0,1.75,6.45,40,40,0,0,0,4.29,6.17c1,1.23,2,2.5,2.89,3.82a17.17,17.17,0,0,1,2.58,5.29,11.94,11.94,0,0,1-.34,6.79,39.49,39.49,0,0,1-2.62,5.76,27.35,27.35,0,0,0-3.13,7.93,19.05,19.05,0,0,0,.71,9c.16.51.33,1,.51,1.55.8,2.36,1.62,4.8,1.35,7.4,0,.08,0,.09,0,.1a.3.3,0,0,0,.25,0,.2.2,0,0,0,.13-.19c.26-2.53-.57-5-1.38-7.43l-.08-.26a21.31,21.31,0,0,1-1.35-8.2,19.71,19.71,0,0,1,2.23-7.7q.57-1.14,1.17-2.28c.72-1.38,1.47-2.81,2.08-4.28a13.44,13.44,0,0,0,1.15-6.51,14.1,14.1,0,0,0-1.83-5.43,45.4,45.4,0,0,0-4-5.55c-1.08-1.35-2.19-2.74-3.16-4.22A16.1,16.1,0,0,1,309,272.6c-.44-3.3.28-6.59,1-9.77a.23.23,0,0,0-.17-.31C309.66,262.49,309.65,262.58,309.64,262.63Z"/>
            </g>
            <g>
              <path class="cls-1" d="M351.45,291.19c1-3.75.14-7.56-.6-11.27-.7-3.53-1.23-7.07-.24-10.6,1.64-5.89,6.15-10.48,9.65-15.31a30,30,0,0,0,4.79-9,.63.63,0,0,0-1.22-.34c-1.75,6-6.2,10.58-9.77,15.5a30.39,30.39,0,0,0-4.34,7.79,20.11,20.11,0,0,0-.5,10.16c.72,4.19,2.1,8.52,1,12.77a.63.63,0,0,0,1.22.34Z"/>
              <path class="cls-1" d="M350.88,292.07a1.33,1.33,0,0,1-.28,0,1,1,0,0,1-.79-1.29c.84-3.28.15-6.69-.51-10-.18-.88-.36-1.75-.51-2.62a20.33,20.33,0,0,1,.52-10.37,31.36,31.36,0,0,1,4.4-7.91c.82-1.13,1.71-2.27,2.56-3.37,2.86-3.68,5.82-7.48,7.15-12a1,1,0,0,1,.74-.72,1.16,1.16,0,0,1,1.08.31,1,1,0,0,1,.23,1,29.93,29.93,0,0,1-4.86,9.18c-.83,1.14-1.73,2.29-2.6,3.4-2.83,3.62-5.75,7.35-7,11.77-1,3.51-.42,7.06.25,10.4l.07.38c.73,3.62,1.47,7.36.52,11.08h0A1,1,0,0,1,350.88,292.07Zm13.54-47.45h-.05c-.05,0-.09,0-.12.13-1.37,4.66-4.38,8.53-7.29,12.28-.85,1.09-1.73,2.22-2.55,3.34a30.29,30.29,0,0,0-4.28,7.68,19.45,19.45,0,0,0-.48,9.94c.15.86.32,1.73.5,2.6.68,3.38,1.39,6.89.5,10.36a.19.19,0,0,0,.16.24.16.16,0,0,0,.22-.12c.9-3.52.18-7.17-.53-10.69l-.07-.39c-.69-3.43-1.27-7.1-.24-10.8,1.28-4.58,4.26-8.38,7.14-12.06.87-1.11,1.76-2.25,2.58-3.38a29.23,29.23,0,0,0,4.73-8.91c0-.09,0-.12,0-.15A.26.26,0,0,0,364.42,244.62Z"/>
            </g>
            <g>
              <path class="cls-1" d="M364.81,177c4.25,1.12,8.45,2.86,10.73,6.86s3.19,9,7,12.07c3.34,2.71,7.68,3.52,11.66,4.87a18.25,18.25,0,0,1,5.51,2.75,19.37,19.37,0,0,1,4.49,5.82,60.39,60.39,0,0,0,11,13.82c.6.55,1.49-.34.89-.89a56.44,56.44,0,0,1-10.1-12.43,32.61,32.61,0,0,0-4.24-6.21,15.76,15.76,0,0,0-5.46-3.44c-3.92-1.59-8.32-2.17-11.92-4.52-4.1-2.69-5.14-7.57-7.25-11.68a13.75,13.75,0,0,0-4.92-5.45,24.76,24.76,0,0,0-7-2.79.63.63,0,0,0-.34,1.22Z"/>
              <path class="cls-1" d="M415.55,223.81a1.07,1.07,0,0,1-.71-.29,60.89,60.89,0,0,1-11-13.93,19.68,19.68,0,0,0-4.38-5.69,18.18,18.18,0,0,0-5.39-2.68c-.9-.31-1.82-.59-2.74-.86-3.15-1-6.41-1.94-9-4.09s-3.89-5.13-5.12-8.05a39.07,39.07,0,0,0-1.95-4.14c-2.31-4.06-6.8-5.69-10.46-6.65h0a1.06,1.06,0,0,1,.56-2.05,25.29,25.29,0,0,1,7.11,2.83,14.21,14.21,0,0,1,5.08,5.63c.55,1.07,1,2.22,1.51,3.32,1.37,3.22,2.66,6.27,5.59,8.19a27.92,27.92,0,0,0,7.4,3c1.47.44,3,.89,4.45,1.48a16,16,0,0,1,5.6,3.54,26.57,26.57,0,0,1,3.7,5.28l.6,1a55.71,55.71,0,0,0,10,12.34,1,1,0,0,1,0,1.45A1.13,1.13,0,0,1,415.55,223.81Zm-50.62-47.22c3.81,1,8.51,2.72,11,7.06a39.86,39.86,0,0,1,2,4.24c1.25,2.94,2.43,5.72,4.87,7.71s5.69,3,8.76,3.93c.93.28,1.86.56,2.77.87a19.15,19.15,0,0,1,5.64,2.81,20.21,20.21,0,0,1,4.6,5.95,59.79,59.79,0,0,0,10.89,13.72.21.21,0,0,0,.31,0c.11-.12,0-.19,0-.22a56.94,56.94,0,0,1-10.19-12.53c-.2-.34-.39-.68-.59-1a26.13,26.13,0,0,0-3.58-5.12,15.28,15.28,0,0,0-5.31-3.34c-1.41-.57-2.91-1-4.37-1.45a28.7,28.7,0,0,1-7.63-3.11c-3.15-2.06-4.55-5.37-5.91-8.57-.46-1.09-.94-2.22-1.48-3.27a13.26,13.26,0,0,0-4.77-5.28,24.35,24.35,0,0,0-6.87-2.74.19.19,0,0,0-.23.16c-.05.18.07.21.12.22Z"/>
            </g>
            <g>
              <path class="cls-1" d="M125,191.21a87.68,87.68,0,0,0,12.85-7.66,35.62,35.62,0,0,0,5.48-5.08,47.65,47.65,0,0,0,4.45-6.42c1.39-2.29,2.73-4.61,4.34-6.76a40.71,40.71,0,0,1,5-5.61,42.1,42.1,0,0,1,6.2-4.75c2.23-1.41,4.55-2.68,6.77-4.13,4.44-2.9,8.66-6.94,9.33-12.48.1-.8-1.16-.8-1.26,0-.58,4.76-4.3,8.41-8.08,11-2.17,1.46-4.46,2.72-6.68,4.09a45.85,45.85,0,0,0-6.1,4.43,48.17,48.17,0,0,0-9.59,11.82c-1.33,2.2-2.63,4.43-4.17,6.49a31.74,31.74,0,0,1-5.14,5.35c-4.25,3.53-9.21,6.1-14.09,8.64-.72.38-.08,1.47.64,1.09Z"/>
              <path class="cls-1" d="M124.73,191.73a1.12,1.12,0,0,1-1-.61,1.05,1.05,0,0,1-.1-.73,1,1,0,0,1,.52-.65c4.86-2.53,9.81-5.11,14-8.6a31.74,31.74,0,0,0,5.08-5.27c1.33-1.78,2.5-3.73,3.64-5.62l.5-.83a48.15,48.15,0,0,1,9.67-11.92,46.52,46.52,0,0,1,6.16-4.48c.78-.48,1.56-.94,2.34-1.4,1.43-.85,2.92-1.73,4.32-2.68,4.77-3.24,7.43-6.83,7.9-10.67a1.12,1.12,0,0,1,1.28-1,.94.94,0,0,1,.84,1.08c-.58,4.8-3.7,9-9.53,12.8-1.22.8-2.51,1.56-3.74,2.29-1,.6-2,1.21-3,1.84a41.92,41.92,0,0,0-6.13,4.7,40.79,40.79,0,0,0-5,5.55c-1.38,1.86-2.59,3.87-3.77,5.83l-.54.9a47.07,47.07,0,0,1-4.5,6.48,35.12,35.12,0,0,1-5.54,5.14,88.47,88.47,0,0,1-12.91,7.7h0A1.07,1.07,0,0,1,124.73,191.73ZM179,138.15a.26.26,0,0,0-.28.22c-.5,4.11-3.28,7.9-8.27,11.28-1.42,1-2.92,1.86-4.37,2.72l-2.32,1.39a45.72,45.72,0,0,0-6.05,4.39,47.46,47.46,0,0,0-9.5,11.71l-.5.84c-1.15,1.9-2.33,3.87-3.69,5.69a31.56,31.56,0,0,1-5.22,5.42c-4.26,3.55-9.26,6.15-14.1,8.67a.19.19,0,0,0-.11.24.21.21,0,0,0,.29.11h0a86.87,86.87,0,0,0,12.78-7.62,34.93,34.93,0,0,0,5.42-5,47.35,47.35,0,0,0,4.41-6.36l.54-.9c1.19-2,2.41-4,3.82-5.9a41.83,41.83,0,0,1,5.11-5.67,43.62,43.62,0,0,1,6.25-4.8c1-.63,2-1.24,3.06-1.84,1.23-.73,2.5-1.48,3.71-2.28,5.6-3.66,8.59-7.65,9.14-12.17,0-.07,0-.1-.09-.11Z"/>
            </g>
            <g>
              <path class="cls-1" d="M225.16,96.11a46.35,46.35,0,0,1,14.14-2.62c.81,0,.81-1.29,0-1.26a47.39,47.39,0,0,0-14.48,2.66c-.76.26-.43,1.49.34,1.22Z"/>
              <path class="cls-1" d="M225,96.58a1,1,0,0,1-.93-.69,1.09,1.09,0,0,1,.66-1.41,48,48,0,0,1,14.6-2.69,1,1,0,0,1,.9.47,1.14,1.14,0,0,1,0,1.12,1,1,0,0,1-.89.54,46,46,0,0,0-14,2.59h0A.91.91,0,0,1,225,96.58Zm14.37-3.92h0A46.86,46.86,0,0,0,225,95.3c-.21.07-.13.29-.13.3s.12.11.17.1h0a46.87,46.87,0,0,1,14.27-2.64.18.18,0,0,0,.16-.09.28.28,0,0,0,0-.25S239.41,92.66,239.32,92.66Z"/>
            </g>
            <g>
              <path class="cls-1" d="M343.64,143.08a9.13,9.13,0,0,1,0,7.86,17.35,17.35,0,0,1-5.54,6.63c-1.33,1-2.74,2-4.15,2.92-.67.45,0,1.54.64,1.09,5.11-3.42,10.85-7.57,11.18-14.31a9.22,9.22,0,0,0-1.08-4.83c-.38-.72-1.48-.08-1.09.64Z"/>
              <path class="cls-1" d="M334.3,162.12a1,1,0,0,1-.83-.47,1.09,1.09,0,0,1,.28-1.52l.09-.06c1.35-.9,2.74-1.83,4-2.84a16.63,16.63,0,0,0,5.41-6.46,8.7,8.7,0,0,0,0-7.49h0a1.05,1.05,0,0,1,.45-1.45,1,1,0,0,1,1.4.4,9.64,9.64,0,0,1,1.13,5.06c-.32,6.72-5.79,10.92-11.37,14.65A1,1,0,0,1,334.3,162.12ZM344,142.87a9.55,9.55,0,0,1,.06,8.24,17.44,17.44,0,0,1-5.68,6.8c-1.31,1-2.72,2-4.08,2.88l-.09.06a.23.23,0,0,0,0,.32c.08.13.15.08.2.05,5.39-3.6,10.68-7.65,11-14a8.78,8.78,0,0,0-1-4.61s-.07-.13-.23,0a.2.2,0,0,0-.1.28Z"/>
            </g>
          </g>
        </g>
        <path d="M80.09,204.67c36-133,203.66-175.12,297.78-74.28,51.87,54.39,61.76,143,22.6,207.2a4.92,4.92,0,0,1-8.4-5.14C442,247.58,404,135.6,312.81,98.51c-65.28-27.6-144.83-7.49-189,48A162.74,162.74,0,0,0,92.66,208a6.5,6.5,0,1,1-12.57-3.32Z"/>
        <path d="M82,211.05c-41.36-38.56-29.3-88.64,30.45-91.36,20.61-1,40.84,2.85,60.5,8.26,38.74,10.37,73.45,31,112.39,40.51,28.41,7.31,69.93,14.94,97.56,3.45,11.78-5.52,20-17.95,21.06-30.93a55.22,55.22,0,0,0-9.33-34.67.64.64,0,0,1,1-.76c9.09,12.14,13.69,28.33,10.2,43.31a41.09,41.09,0,0,1-21.14,26.87c-21.7,9.61-48.37,7.57-71.33,4.61-29.86-4.35-58.93-13.21-86.75-24.78-27.31-11.28-55.45-20.85-84.71-24.66-22.09-2.75-56.75-3-69.24,18.66-5.23,9.51-3.49,21,1.2,30.48,3.94,8,10,15.23,16.89,21.4,6.29,6.07-2.17,15.3-8.77,9.61Z"/>
        <path d="M283.75,342.5c30.86,12.79,66.68,11.51,96.84-2.51,29-13.64,54.86-37.57,68.32-66.8,5.71-13.12,9.95-29.8.85-42.23-7.57-9.39-21.23-11-33-11-8.8-.31-8.62-12.94.19-13,13.36.54,28.17,3,38.5,12.57,10.83,10.08,13.06,25.81,10.36,39.71-5.24,26-21.93,47.22-41.61,63.74-24.62,21.09-56.76,33.15-89.18,32.71a122.66,122.66,0,0,1-51.77-12.16.56.56,0,0,1,.46-1Z"/>
      </g>
      <g>
        <path d="M361.8,90.82c-1.65,1-3.33,2-5,3-1.09.64-3.66,2.78-4.88,2.78-1.79,0-5.3-4.52-6.71-5.88q-8.1-7.81-16.29-15.54c-4.89-4.63-9.68-9.66-14.87-14,4.16,1.43,53.9,14.35,65.61,17.22C373.9,82.82,368,87,361.8,90.82Zm7.3-2.52q6.67-4.48,13-9.44l.05,0c1.13,1.2,5,16,6.2,19.29C382.06,95.2,375.9,89.89,369.1,88.3Zm20.79,8.1c-.92-2.74-1.38-5.59-2.36-8.3-1.2-3.29-2.8-8.59-3.39-9.65-.81-1.43-3.23-1.66-3.56-1.72-20-4.19-67.14-16.54-69.29-18,4.79.59,68.27,14.87,81.5,17.14C392.3,79.78,390.37,93.56,389.89,96.4Zm3.93-22c-6.86-1.23-13.34-2.48-20.21-3.81s-53.6-10.8-54.51-11c3.27.28,81.14,9.12,97.35,10.71C414.11,70.62,393.82,74.42,393.82,74.42Z"/>
        <circle class="cls-1" cx="163.97" cy="253.14" r="20.23"/>
        <g>
          <path d="M118,223.12a13.85,13.85,0,0,1,4.15.5,3.67,3.67,0,0,1,2.25,1.74,6.6,6.6,0,0,1,.78,2.24,23.69,23.69,0,0,1,.13,2.91V276.6a18,18,0,0,1-.17,2.86,7.46,7.46,0,0,1-.79,2.16,3.51,3.51,0,0,1-2.2,1.7,14.54,14.54,0,0,1-4.23.5,13.17,13.17,0,0,1-3.57-.41,6.61,6.61,0,0,1-2.16-1,3.51,3.51,0,0,1-1.12-1.7,7.65,7.65,0,0,1-.42-1.91c0-.53,0-1.32,0-2.37V248.61q-2.07,2.58-6.06,8.18t-5.9,8a8.39,8.39,0,0,1-.66,1,8,8,0,0,1-2,1.49,6.95,6.95,0,0,1-6.89.09,7.55,7.55,0,0,1-2.2-1.71l-.66-.91q-1.67-2.07-6.56-8.84t-5.32-7.27v28a24.89,24.89,0,0,1-.12,2.86,6.23,6.23,0,0,1-.79,2.16,3.68,3.68,0,0,1-2.24,1.7,14.62,14.62,0,0,1-4.24.5,13.84,13.84,0,0,1-4.11-.5,3.68,3.68,0,0,1-2.2-1.7,6.47,6.47,0,0,1-.79-2.2,27.19,27.19,0,0,1-.12-3V230.34a25,25,0,0,1,.12-2.86,6.44,6.44,0,0,1,.79-2.16,3.68,3.68,0,0,1,2.24-1.7,14.28,14.28,0,0,1,4.24-.5,12.27,12.27,0,0,1,3.86.54,5,5,0,0,1,2.12,1.12l.5.5L92.47,250q14.11-18.68,18.85-24.66Q112.73,223.13,118,223.12Z"/>
          <path d="M160.56,222.29a29.48,29.48,0,0,1,21.34,8.88q9,8.9,9,22.51a31.09,31.09,0,0,1-8.64,22,27.65,27.65,0,0,1-21,9.26,29,29,0,0,1-21.72-9.13A30.19,30.19,0,0,1,130.75,254a33.4,33.4,0,0,1,2.49-12.91A29.8,29.8,0,0,1,139.88,231a31.17,31.17,0,0,1,9.55-6.4A27.87,27.87,0,0,1,160.56,222.29Zm.25,47.91a15.18,15.18,0,0,0,10.71-4.48q4.72-4.49,4.73-12.13,0-7.47-4.77-12a14.67,14.67,0,0,0-21.3,0,16.11,16.11,0,0,0-4.74,12.09,15.83,15.83,0,0,0,4.78,11.91A14.89,14.89,0,0,0,160.81,270.2Z"/>
          <path d="M248.58,224q4.9,2.42,4.9,5.31a10.7,10.7,0,0,1-1.25,4l-22.92,46.5a7,7,0,0,1-2.78,2.95,7.36,7.36,0,0,1-3.86,1.12h-.83a7.5,7.5,0,0,1-3.94-1.12,7,7,0,0,1-2.78-2.95l-22.92-46.5a10.7,10.7,0,0,1-1.25-4q0-2.89,4.9-5.31a10.65,10.65,0,0,1,4.65-1.41,4.25,4.25,0,0,1,1.74.33,3.51,3.51,0,0,1,1.37,1.16,15,15,0,0,1,1,1.41c.22.39.55,1,1,1.83.05.11.94,2.06,2.65,5.85s3.56,7.82,5.52,12.09,3.82,8.29,5.57,12.08,2.72,5.91,2.95,6.35l16.6-36.37a19.24,19.24,0,0,1,1.21-2.45,5.57,5.57,0,0,1,1.53-1.58,3.94,3.94,0,0,1,2.33-.7A10.65,10.65,0,0,1,248.58,224Z"/>
          <path d="M272.74,269.21h25.58a24.89,24.89,0,0,1,2.86.12,6.67,6.67,0,0,1,2.21.79,3.62,3.62,0,0,1,1.74,2.24,14.62,14.62,0,0,1,.5,4.24,12.74,12.74,0,0,1-.42,3.57,6.83,6.83,0,0,1-1,2.16,3.56,3.56,0,0,1-1.71,1.12,7.4,7.4,0,0,1-1.91.41c-.52,0-1.31,0-2.36,0H265.35a12.78,12.78,0,0,1-3.57-.41,6.61,6.61,0,0,1-2.16-1,3.48,3.48,0,0,1-1.12-1.7,7.08,7.08,0,0,1-.41-1.91c0-.53,0-1.31,0-2.37V230.34q0-4.23,1.57-5.77c1.05-1,3.05-1.53,6-1.53h32.72a24.89,24.89,0,0,1,2.86.12,6.67,6.67,0,0,1,2.21.79,3.62,3.62,0,0,1,1.74,2.24,14.62,14.62,0,0,1,.5,4.24,12.74,12.74,0,0,1-.42,3.57,6.83,6.83,0,0,1-1,2.16,3.56,3.56,0,0,1-1.71,1.12,7.4,7.4,0,0,1-1.91.41c-.52,0-1.31,0-2.36,0h-25.5v8.39h16.45a22.46,22.46,0,0,1,2.86.13,6.58,6.58,0,0,1,2.2.78,3.67,3.67,0,0,1,1.74,2.25,14.2,14.2,0,0,1,.5,4.23,13.17,13.17,0,0,1-.41,3.57,6.61,6.61,0,0,1-1,2.16,3.5,3.5,0,0,1-1.74,1.12,8.2,8.2,0,0,1-1.95.42c-.53,0-1.32,0-2.37,0H272.74Z"/>
        </g>
        <g>
          <path d="M132.57,297.41q5.56,2,5.57,5.31a15.87,15.87,0,0,1-1,4.07L121.2,352.88a8.82,8.82,0,0,1-.58,1.41,8,8,0,0,1-2.2,2.2,6.74,6.74,0,0,1-4.2,1.37,6.82,6.82,0,0,1-4.27-1.37,7.24,7.24,0,0,1-2.37-2.7l-.5-1.41-9.22-27.24-9.21,27.24c-.06.17-.13.37-.21.62a7.67,7.67,0,0,1-.71,1.29A9.78,9.78,0,0,1,86.4,356a6.68,6.68,0,0,1-2,1.33,6.85,6.85,0,0,1-2.87.58,6.54,6.54,0,0,1-4-1.25,6.93,6.93,0,0,1-2.29-2.49l-.58-1.24-16-46.09a14.51,14.51,0,0,1-.92-4.07c0-2.21,1.86-4,5.57-5.23a13,13,0,0,1,4.06-.83A3.88,3.88,0,0,1,70.58,298a12.43,12.43,0,0,1,1.87,4.07l9.14,27.73,9-27.32c0-.16.12-.36.21-.58a9.27,9.27,0,0,1,.7-1.29,9.15,9.15,0,0,1,1.29-1.66,6.51,6.51,0,0,1,2-1.28,7,7,0,0,1,2.83-.58,7.33,7.33,0,0,1,4.56,1.37,6.49,6.49,0,0,1,2.33,2.69l.5,1.33,9,27.49,9.13-27.9c.45-1.28.81-2.22,1.08-2.83a5,5,0,0,1,1.54-1.78,4.28,4.28,0,0,1,2.7-.87A11.48,11.48,0,0,1,132.57,297.41Z"/>
          <path d="M171.27,296.33a29.47,29.47,0,0,1,21.34,8.88q9,8.9,9,22.51a31.13,31.13,0,0,1-8.63,22,27.67,27.67,0,0,1-21,9.26,29.06,29.06,0,0,1-21.72-9.13,30.24,30.24,0,0,1-8.84-21.76A33.4,33.4,0,0,1,144,315.14a29.8,29.8,0,0,1,6.64-10.09,31.17,31.17,0,0,1,9.55-6.4A27.87,27.87,0,0,1,171.27,296.33Zm.25,47.91a15.16,15.16,0,0,0,10.71-4.48q4.74-4.49,4.73-12.13,0-7.47-4.77-12a14.67,14.67,0,0,0-21.3,0c-3.16,3.08-4.73,7.1-4.73,12.09a15.82,15.82,0,0,0,4.77,11.91A14.89,14.89,0,0,0,171.52,344.24Z"/>
          <path d="M253.64,347.65a13.21,13.21,0,0,1,1.25,4.31q0,3.17-5.15,5.32a11.75,11.75,0,0,1-4.48,1.16,3.89,3.89,0,0,1-2.45-.79,5.21,5.21,0,0,1-1.5-1.62c-.3-.55-.7-1.41-1.2-2.57q-1.83-4.15-5.32-12.46l-2.57.17H221.76v9.38a22.53,22.53,0,0,1-.13,2.87,6.48,6.48,0,0,1-.79,2.2,3.62,3.62,0,0,1-2.24,1.74,14.54,14.54,0,0,1-4.23.5,13.17,13.17,0,0,1-3.57-.41,6.41,6.41,0,0,1-2.16-1,3.44,3.44,0,0,1-1.12-1.7,7.65,7.65,0,0,1-.42-1.91c0-.53,0-1.32,0-2.37V304.38a25,25,0,0,1,.12-2.86,6.86,6.86,0,0,1,.79-2.2,3.67,3.67,0,0,1,2.24-1.75,14.71,14.71,0,0,1,4.24-.49h17.94a20.48,20.48,0,0,1,7.18,1.37,26.37,26.37,0,0,1,7,3.94,19.54,19.54,0,0,1,5.48,7,21.91,21.91,0,0,1,2.16,9.79A20.64,20.64,0,0,1,248,334.61Q249.82,339,253.64,347.65Zm-31.88-21.18h10.63a7.93,7.93,0,0,0,4.81-1.83,7.48,7.48,0,0,0,0-11,8.05,8.05,0,0,0-5-1.87H221.76Z"/>
          <path d="M274.15,345.65h22.59a17.6,17.6,0,0,1,2.45.13,6.27,6.27,0,0,1,1.79.62,2.88,2.88,0,0,1,1.41,1.83,12.57,12.57,0,0,1,.41,3.57,12.3,12.3,0,0,1-.41,3.49,3,3,0,0,1-1.46,1.86,5.78,5.78,0,0,1-1.86.67,18.21,18.21,0,0,1-2.41.12h-29.9a12.78,12.78,0,0,1-3.57-.41,6.61,6.61,0,0,1-2.16-1,3.48,3.48,0,0,1-1.12-1.7,7.08,7.08,0,0,1-.41-1.91c0-.53,0-1.31,0-2.37V304.38a25,25,0,0,1,.12-2.86,6.62,6.62,0,0,1,.79-2.2,3.67,3.67,0,0,1,2.24-1.75,14.62,14.62,0,0,1,4.24-.49,12.78,12.78,0,0,1,3.57.41,6.61,6.61,0,0,1,2.16,1,3.48,3.48,0,0,1,1.12,1.7,7.49,7.49,0,0,1,.41,1.91c0,.53,0,1.32,0,2.37Z"/>
          <path d="M361.26,327.14a29.77,29.77,0,0,1-8.92,21.67,29.3,29.3,0,0,1-21.64,9.05H315.51a13.87,13.87,0,0,1-4.07-.5,3.77,3.77,0,0,1-2.24-1.62,6,6,0,0,1-.83-2.24,20.31,20.31,0,0,1-.17-3V304.3a24.94,24.94,0,0,1,.12-2.91,6.93,6.93,0,0,1,.79-2.16,3.65,3.65,0,0,1,2.25-1.74,14.54,14.54,0,0,1,4.23-.5l7.64,0c3.43,0,6,.05,7.72.05a29.83,29.83,0,0,1,21.18,8.67A28.35,28.35,0,0,1,361.26,327.14Zm-14.7.33a14.9,14.9,0,0,0-4.69-11.17,15.32,15.32,0,0,0-11-4.53h-8v31.39H331a15.54,15.54,0,0,0,10.8-4.44A14.64,14.64,0,0,0,346.56,327.47Z"/>
        </g>
      </g>
    </g>
  </g>
</svg>
